HIERARCHY
ROOT Hips
{
	OFFSET -0.001795 -0.223333 0.028219
	CHANNELS 6 Xposition Yposition Zposition Zrotation Yrotation Xrotation 
	JOINT LeftUpLeg
	{
		OFFSET 0.069520 -0.091406 -0.006815
		CHANNELS 3 Zrotation Yrotation Xrotation
		JOINT LeftLeg
		{
			OFFSET 0.034277 -0.375199 -0.004496
			CHANNELS 3 Zrotation Yrotation Xrotation
			JOINT LeftFoot
			{
				OFFSET -0.013596 -0.397961 -0.043693
				CHANNELS 3 Zrotation Yrotation Xrotation
				JOINT LeftToe
				{
					OFFSET 0.026358 -0.055791 0.119288
					CHANNELS 3 Zrotation Yrotation Xrotation
					End Site
					{
						OFFSET 0.000000 0.000000 0.000000
					}
				}
			}
		}
	}
	JOINT RightUpLeg
	{
		OFFSET -0.067670 -0.090522 -0.004320
		CHANNELS 3 Zrotation Yrotation Xrotation
		JOINT RightLeg
		{
			OFFSET -0.038290 -0.382569 -0.008850
			CHANNELS 3 Zrotation Yrotation Xrotation
			JOINT RightFoot
			{
				OFFSET 0.015774 -0.398415 -0.042312
				CHANNELS 3 Zrotation Yrotation Xrotation
				JOINT RightToe
				{
					OFFSET -0.025372 -0.048144 0.123348
					CHANNELS 3 Zrotation Yrotation Xrotation
					End Site
					{
						OFFSET 0.000000 0.000000 0.000000
					}
				}
			}
		}
	}
	JOINT Spine
	{
		OFFSET -0.002533 0.108963 -0.026696
		CHANNELS 3 Zrotation Yrotation Xrotation
		JOINT Spine1
		{
			OFFSET 0.005487 0.135180 0.001092
			CHANNELS 3 Zrotation Yrotation Xrotation
			JOINT Spine2
			{
				OFFSET 0.001457 0.052922 0.025425
				CHANNELS 3 Zrotation Yrotation Xrotation
				JOINT Neck
				{
					OFFSET -0.002778 0.213870 -0.042857
					CHANNELS 3 Zrotation Yrotation Xrotation
					JOINT Head
					{
						OFFSET 0.005152 0.064970 0.051349
						CHANNELS 3 Zrotation Yrotation Xrotation
						End Site
						{
							OFFSET 0.000000 0.000000 0.000000
						}
					}
				}
				JOINT LeftShoulder
				{
					OFFSET 0.078845 0.121749 -0.034090
					CHANNELS 3 Zrotation Yrotation Xrotation
					JOINT LeftArm
					{
						OFFSET 0.090977 0.030469 -0.008868
						CHANNELS 3 Zrotation Yrotation Xrotation
						JOINT LeftForeArm
						{
							OFFSET 0.259612 -0.012772 -0.027456
							CHANNELS 3 Zrotation Yrotation Xrotation
							JOINT LeftHand
							{
								OFFSET 0.249234 0.008986 -0.001171
								CHANNELS 3 Zrotation Yrotation Xrotation
								End Site
								{
									OFFSET 0.000000 0.000000 0.000000
								}
							}
						}
					}
				}
				JOINT RightShoulder
				{
					OFFSET -0.081759 0.118833 -0.038615
					CHANNELS 3 Zrotation Yrotation Xrotation
					JOINT RightArm
					{
						OFFSET -0.096012 0.032551 -0.009143
						CHANNELS 3 Zrotation Yrotation Xrotation
						JOINT RightForeArm
						{
							OFFSET -0.253742 -0.013329 -0.021401
							CHANNELS 3 Zrotation Yrotation Xrotation
							JOINT RightHand
							{
								OFFSET -0.255298 0.007772 -0.005559
								CHANNELS 3 Zrotation Yrotation Xrotation
								End Site
								{
									OFFSET 0.000000 0.000000 0.000000
								}
							}
						}
					}
				}
			}
		}
	}
}
MOTION
Frames: 6
Frame Time: 0.050000
0.008479 0.949795 -0.012159 -0.596516 -4.051775 1.348355 5.839598 0.222534 5.639297 -5.642012 0.580762 -6.289738 6.629726 15.122313 14.269488 0.000000 0.000000 0.000000 -4.478943 -0.018451 3.114563 3.323639 -0.336165 -1.559033 -5.524994 -16.150574 16.268698 0.000000 0.000000 0.000000 -1.211155 -0.123520 4.728852 4.482153 -0.423286 -25.553864 -0.800565 0.396355 30.051117 1.732360 1.024824 -37.724203 0.000000 0.000000 0.000000 -32.889292 4.421130 -4.350383 -43.452798 -7.514041 -5.158678 -13.633721 -27.088633 4.831060 0.000000 0.000000 0.000000 22.313223 3.813522 0.258952 51.064562 4.890725 -5.365385 5.824656 26.362727 2.336178 0.000000 0.000000 0.000000 
0.009459 0.949748 -0.011909 -0.518749 -4.189662 1.293299 5.540597 0.246878 5.734838 -5.524341 0.576732 -6.155093 6.754336 15.303425 14.305943 0.000000 0.000000 0.000000 -4.444375 -0.013821 3.017921 3.196704 -0.320926 -1.215430 -5.664864 -16.396614 16.301449 0.000000 0.000000 0.000000 -1.122107 -0.135054 4.965938 4.516871 -0.422601 -25.694510 -1.004544 -0.057034 30.163225 1.308577 1.121092 -37.645412 0.000000 0.000000 0.000000 -32.901818 4.060247 -3.822443 -43.511519 -7.775636 -5.177103 -13.229730 -27.535297 4.847935 0.000000 0.000000 0.000000 22.501742 3.896730 0.117668 50.887783 4.454068 -5.495576 5.695803 26.355100 2.278481 0.000000 0.000000 0.000000 
0.010261 0.949519 -0.011569 -0.424351 -4.304349 1.169376 5.391395 0.262965 5.811789 -5.558485 0.584326 -5.872439 6.815728 15.365686 13.930621 0.000000 0.000000 0.000000 -4.499753 -0.000985 2.857627 3.195965 -0.310942 -0.438860 -5.734112 -16.482917 15.943635 0.000000 0.000000 0.000000 -1.057016 -0.147912 5.285584 4.506286 -0.414122 -25.804059 -1.128052 -0.332217 30.217272 0.742705 1.318042 -37.559396 0.000000 0.000000 0.000000 -33.016752 3.956164 -3.592850 -43.627109 -8.056348 -5.151647 -12.677696 -27.902453 4.801372 0.000000 0.000000 0.000000 22.517755 3.983425 0.054195 50.773053 4.175943 -5.577004 5.954303 26.451626 2.325658 0.000000 0.000000 0.000000 
0.010797 0.949290 -0.011312 -0.363777 -3.535357 1.144685 5.513464 0.228948 5.563734 -5.821830 0.596732 -5.483184 6.570126 15.057017 14.022613 0.000000 0.000000 0.000000 -4.187562 -0.025350 2.775458 3.042549 -0.296994 -0.034165 -6.097030 -17.037214 16.390338 0.000000 0.000000 0.000000 -1.233598 -0.151762 5.770049 4.530399 -0.391559 -26.071948 -1.177476 -1.109323 30.126475 0.036107 1.596453 -37.626566 0.000000 0.000000 0.000000 -32.906365 3.771380 -3.324108 -43.809935 -8.265575 -5.128852 -12.723287 -28.235715 4.894594 0.000000 0.000000 0.000000 22.704085 3.770007 -0.177498 50.593421 3.985732 -5.597772 5.915474 26.533095 2.310011 0.000000 0.000000 0.000000 
0.011126 0.948850 -0.011228 -0.356392 -3.049652 1.065755 5.729934 0.181666 4.984278 -6.118810 0.629436 -4.441033 6.167522 14.400414 13.109184 0.000000 0.000000 0.000000 -4.106706 -0.026111 2.600355 3.393056 -0.324258 0.914020 -6.405925 -17.418534 15.581005 0.000000 0.000000 0.000000 -1.181225 -0.166338 6.129377 4.720047 -0.432916 -26.012236 -1.359737 -1.017720 30.102301 -0.297354 1.822307 -37.849321 0.000000 0.000000 0.000000 -32.460921 3.430508 -3.213246 -43.922427 -8.243702 -5.088840 -13.058128 -29.225212 5.154440 0.000000 0.000000 0.000000 22.760936 3.909791 0.039698 50.586858 3.870729 -5.674928 6.095631 26.737773 2.391578 0.000000 0.000000 0.000000 
0.011343 0.948628 -0.011192 -0.344808 -1.812896 0.845759 6.093316 0.109132 4.198359 -6.358794 0.655233 -3.170188 5.668518 13.696496 12.869305 0.000000 0.000000 0.000000 -4.170589 -0.009296 2.110154 3.957311 -0.388039 2.326370 -7.660701 -19.376368 16.239907 0.000000 0.000000 0.000000 -1.474900 -0.162434 6.567842 4.585117 -0.392311 -25.999981 -1.025100 -1.162594 30.309274 -1.352606 2.414802 -38.434562 0.000000 0.000000 0.000000 -31.707640 3.382183 -3.380338 -44.726395 -8.663523 -4.936454 -13.443056 -29.597622 5.316990 0.000000 0.000000 0.000000 22.659501 4.010834 0.342524 50.722896 3.840591 -5.780321 6.429380 27.568631 2.596834 0.000000 0.000000 0.000000 
